<svg width="100" height="100" viewBox="0 0 100 100" fill="none" xmlns="http://www.w3.org/2000/svg">
<path d="M50 12.5C70.7107 12.5 87.5 29.2893 87.5 50C87.5 70.7107 70.7107 87.5 50 87.5C29.2893 87.5 12.5 70.7107 12.5 50C12.5 29.2893 29.2893 12.5 50 12.5ZM68.2676 35.5791C67.2731 34.7505 65.8253 34.8254 64.9199 35.7119L64.7461 35.8994L45.666 58.7959L35.1016 48.2324C34.1253 47.2562 32.5418 47.2563 31.5654 48.2324C30.5896 49.2086 30.5896 50.7913 31.5654 51.7676L42.5176 62.7188L43.0459 63.2393C43.2386 63.4215 43.4432 63.6041 43.6465 63.7578C44.0817 64.0869 44.7868 64.5063 45.7324 64.5186L45.9248 64.5146L46.1172 64.501C47.0576 64.4031 47.7214 63.9218 48.125 63.5547C48.3136 63.3831 48.5013 63.1825 48.6768 62.9834L49.1562 62.418L68.5879 39.1006L68.7412 38.8955C69.4496 37.8452 69.2617 36.4077 68.2676 35.5791Z" fill="#3182F7"/>
</svg>
