<svg width="53" height="60" viewBox="0 0 53 60" fill="none" xmlns="http://www.w3.org/2000/svg">
<rect x="44.2754" y="11" width="9" height="11" transform="rotate(30 44.2754 11)" fill="#8DD4E6"/>
<rect x="34.748" y="5.5" width="9" height="11" transform="rotate(30 34.748 5.5)" fill="#FFDE85"/>
<rect x="25.2227" width="9" height="11" transform="rotate(30 25.2227 0)" fill="#ECA6A3"/>
<path d="M9.45895 48.3202C8.83512 46.948 24.0939 25.4243 23.5664 23.8853C23.0389 22.3463 14.4659 18.6311 14.4659 18.6311L18.2227 12.1243L45.0694 27.6243L41.3127 34.1311C41.3127 34.1311 33.1556 28.1872 31.8479 28.6666C30.5401 29.146 19.1358 52.7133 17.7404 53.1015C16.3451 53.4896 10.0828 49.6923 9.45895 48.3202Z" fill="#626262"/>
<circle cx="15.7446" cy="46.8937" r="1.75139" transform="rotate(30 15.7446 46.8937)" fill="white"/>
</svg>
