<svg width="157" height="182" viewBox="0 0 157 182" fill="none" xmlns="http://www.w3.org/2000/svg">
<path d="M3.69629 157V123H17.9963C21.763 123 25.0296 124.017 27.7963 126.05C30.5963 128.083 31.9963 131.15 31.9963 135.25C31.9963 139.317 30.513 142.317 27.5463 144.25C24.5796 146.15 21.263 147.1 17.5963 147.1H12.7963V157H3.69629ZM17.6963 130.15H12.7963V139.95H17.7963C19.1963 139.95 20.3463 139.5 21.2463 138.6C22.1463 137.7 22.5963 136.583 22.5963 135.25C22.5963 133.75 22.163 132.533 21.2963 131.6C20.4296 130.633 19.2296 130.15 17.6963 130.15ZM51.1471 133.9L47.8971 143.15H54.5471L51.1471 133.9ZM55.8471 123L68.5471 156.1L59.5971 157L57.1471 150.3H45.3971L43.0471 157H33.9971L46.7471 123H55.8471ZM72.5439 157V123H81.6439V157H72.5439ZM88.6572 157V123H97.1072L110.207 141.45V123H119.307V157H110.807L97.7572 139.1V157H88.6572Z" fill="#626262"/>
<path d="M136.508 157.728C135.282 156.852 137.735 130.583 136.508 129.513C135.282 128.444 126 129.513 126 129.513V122H157V129.513C157 129.513 146.964 128.444 146.071 129.513C145.178 130.583 147.085 156.695 146.071 157.728C145.057 158.762 137.735 158.605 136.508 157.728Z" fill="#626262"/>
<circle cx="141.238" cy="153.35" r="1.75139" fill="white"/>
<path d="M72.0383 105L64.6883 84.25L57.5383 105H48.4383L36.7383 71.9L45.6883 71L53.0883 93.9L60.2383 71H69.2883L76.6883 93.9L83.8383 71H92.8883L81.1383 105H72.0383ZM96.8672 105V71H119.417L120.267 78.15H105.967V84.35H116.417L117.267 91.5H105.967V97.85H120.917L121.767 105H96.8672Z" fill="#626262"/>
</svg>
